<?xml version="1.0" encoding="UTF-8" standalone="no"?>
<!-- Created with Inkscape (http://www.inkscape.org/) -->

<svg
   xmlns:dc="http://purl.org/dc/elements/1.1/"
   xmlns:cc="http://creativecommons.org/ns#"
   xmlns:rdf="http://www.w3.org/1999/02/22-rdf-syntax-ns#"
   xmlns:svg="http://www.w3.org/2000/svg"
   xmlns="http://www.w3.org/2000/svg"
   xmlns:sodipodi="http://sodipodi.sourceforge.net/DTD/sodipodi-0.dtd"
   xmlns:inkscape="http://www.inkscape.org/namespaces/inkscape"
   width="41.275002mm"
   height="5.5562501mm"
   viewBox="0 0 41.235692 5.5562501"
   version="1.1"
   id="svg8"
   inkscape:version="0.92.2 (5c3e80d, 2017-08-06)"
   sodipodi:docname="thumbtack.svg">
  <defs
     id="defs2" />
  <sodipodi:namedview
     id="base"
     pagecolor="#ffffff"
     bordercolor="#666666"
     borderopacity="1.0"
     inkscape:pageopacity="0.0"
     inkscape:pageshadow="2"
     inkscape:zoom="0.35"
     inkscape:cx="-376.66368"
     inkscape:cy="-255.21429"
     inkscape:document-units="mm"
     inkscape:current-layer="layer1"
     showgrid="false"
     viewbox-width="209.8"
     fit-margin-top="0"
     fit-margin-left="0"
     fit-margin-right="0"
     fit-margin-bottom="0"
     inkscape:window-width="1920"
     inkscape:window-height="1177"
     inkscape:window-x="1912"
     inkscape:window-y="-8"
     inkscape:window-maximized="1" />
  <metadata
     id="metadata5">
    <rdf:RDF>
      <cc:Work
         rdf:about="">
        <dc:format>image/svg+xml</dc:format>
        <dc:type
           rdf:resource="http://purl.org/dc/dcmitype/StillImage" />
        <dc:title></dc:title>
      </cc:Work>
    </rdf:RDF>
  </metadata>
  <g
     inkscape:label="Layer 1"
     inkscape:groupmode="layer"
     id="layer1"
     transform="translate(-64.885124,-75.751637)">
    <path
       id="path3848"
       d="m 95.389473,80.495351 c -0.37121,0 -0.552714,-0.230981 -0.552185,-0.470164 0,-0.313002 0.232833,-0.469636 0.526521,-0.510646 l 1.000389,-0.142875 v 0.181239 c -2.64e-4,0.717021 -0.491596,0.942446 -0.974989,0.942446 z m 0.201083,-3.269721 c 1.14935,0 1.880659,0.570707 1.880659,1.692011 v 2.278856 H 96.41394 l 0.0042,-0.450321 c -0.211633,0.318029 -0.665923,0.561975 -1.228163,0.561711 -0.906198,-2.65e-4 -1.458118,-0.585788 -1.457854,-1.220259 0,-0.725223 0.561181,-1.128977 1.268942,-1.227666 0,0 1.162314,-0.137584 1.327414,-0.160073 0,-0.478631 -0.446352,-0.587111 -0.891116,-0.587111 -0.455613,0 -0.817827,0.159015 -1.098021,0.346605 L 93.92474,77.737864 c 0.43471,-0.307446 1.005946,-0.512234 1.665816,-0.512234 z m -24.555979,0.526521 c 0.288396,-0.383381 0.718609,-0.519112 1.161521,-0.519112 0.919427,0 1.575329,0.610658 1.575329,1.508654 v 2.462212 h -1.090612 v -2.12725 c 0,-0.55827 -0.292365,-0.865716 -0.789781,-0.865716 -0.468048,0 -0.856457,0.291041 -0.856457,0.873919 V 81.20417 H 69.9437 v -5.452533 h 1.090877 v 2.00025 z m 14.435667,0.989277 v 2.462213 h -1.086379 v -2.12725 c 0,-0.558271 -0.296598,-0.865717 -0.789781,-0.865717 -0.468048,0 -0.856721,0.291042 -0.856721,0.873919 v 2.119312 h -1.090348 v -2.12725 c 0,-0.5588 -0.292365,-0.865981 -0.789781,-0.865981 -0.467784,0 -0.856457,0.291042 -0.856457,0.873919 v 2.119312 h -1.090612 v -3.86715 h 1.061244 v 0.454819 c 0.288395,-0.410898 0.731308,-0.5588 1.191154,-0.5588 0.584729,0 1.065477,0.251354 1.336939,0.662517 0.313532,-0.490802 0.844021,-0.662517 1.374775,-0.662517 0.9525,0 1.596232,0.610659 1.596232,1.508654 z m 4.884208,0.526521 c 0,1.161521 -0.844285,2.03544 -1.960033,2.03544 -0.559858,0 -0.948531,-0.215371 -1.211792,-0.526521 v 0.426773 H 86.11715 v -5.448035 h 1.086379 v 1.984374 c 0.263261,-0.303212 0.643467,-0.506941 1.186657,-0.506941 1.119981,0 1.964002,0.874183 1.964002,2.035439 z m -3.182408,0 c 0,0.610923 0.422275,1.065742 1.040606,1.065742 0.643467,0 1.044575,-0.474927 1.044575,-1.065477 0,-0.590815 -0.401108,-1.065477 -1.044575,-1.065477 -0.618331,0 -1.040606,0.455083 -1.040606,1.065477 z m 14.476676,-1.30466 -0.78581,0.626533 c -0.24606,-0.251354 -0.50959,-0.387085 -0.86466,-0.387085 -0.564091,0 -1.015471,0.423069 -1.015471,1.065477 0,0.646377 0.447146,1.065477 1.011238,1.065477 0.350833,0 0.651933,-0.151606 0.881593,-0.391054 l 0.77734,0.634471 c -0.3802,0.466989 -0.94879,0.726281 -1.62533,0.726281 -1.291432,0 -2.156355,-0.862013 -2.156355,-2.035175 0,-1.169458 0.864923,-2.03544 2.156355,-2.03544 0.67654,0 1.24883,0.263525 1.6211,0.73025 z m 4.18783,-0.626533 -1.46685,1.445418 1.69042,2.421731 h -1.32689 l -1.12818,-1.750747 -0.49318,0.486833 v 1.263914 h -1.09062 v -5.448299 h 1.09062 v 3.018895 l 1.41234,-1.437481 h 1.3126 z m -28.713381,3.452018 c -0.288396,0.383117 -0.718608,0.519113 -1.161521,0.519113 -0.919427,0 -1.575329,-0.610394 -1.575329,-1.50839 V 77.33702 h 1.090612 v 2.126985 c 0,0.558536 0.292365,0.865982 0.789782,0.865982 0.468048,0 0.856456,-0.291307 0.856456,-0.873919 v -2.119577 h 1.090612 v 3.86715 H 77.123169 V 80.78851 Z M 90.498386,77.33702 h 0.59346 v -1.14935 h 1.086644 v 1.14935 h 1.208616 v 0.926042 H 92.17849 v 1.635918 c 0,0.270669 0.196056,0.434975 0.410898,0.434975 0.226218,0 0.520435,-0.135995 0.520435,-0.135995 l 0.351367,0.82841 c 0,0 -0.373327,0.27305 -1.207559,0.27305 -0.551656,0 -1.161785,-0.398727 -1.161785,-1.173162 v -1.863725 h -0.59346 V 77.336491 Z M 67.764327,77.231187 v 2.456391 c 0,0.423334 -0.116416,0.839523 -0.337873,1.2065 L 67.18145,81.29942 66.936711,80.893814 a 2.3323021,2.3323021 0 0 1 -0.338138,-1.2065 v -1.935427 c 0.289454,-0.38444 0.721519,-0.5207 1.165754,-0.5207 z m -2.979208,-0.437886 v -1.041664 h 4.792927 v 1.041664 z"
       inkscape:connector-curvature="0"
       style="fill-rule:evenodd;stroke-width:0.26458332" />
  </g>
</svg>
